<?xml version="1.0" encoding="UTF-8" standalone="no"?>
<svg
   xmlns:dc="http://purl.org/dc/elements/1.1/"
   xmlns:cc="http://creativecommons.org/ns#"
   xmlns:rdf="http://www.w3.org/1999/02/22-rdf-syntax-ns#"
   xmlns:svg="http://www.w3.org/2000/svg"
   xmlns="http://www.w3.org/2000/svg"
   xmlns:sodipodi="http://sodipodi.sourceforge.net/DTD/sodipodi-0.dtd"
   xmlns:inkscape="http://www.inkscape.org/namespaces/inkscape"
   version="1.1"
   x="0px"
   y="0px"
   viewBox="0 0 100 125"
   enable-background="new 0 0 100 100"
   xml:space="preserve"
   id="svg4204"
   inkscape:version="0.91 r13725"
   sodipodi:docname="noun_grapes_792470.svg"><metadata
     id="metadata4216"><rdf:RDF><cc:Work
         rdf:about=""><dc:format>image/svg+xml</dc:format><dc:type
           rdf:resource="http://purl.org/dc/dcmitype/StillImage" /></cc:Work></rdf:RDF></metadata><defs
     id="defs4214" /><sodipodi:namedview
     pagecolor="#ffffff"
     bordercolor="#666666"
     borderopacity="1"
     objecttolerance="10"
     gridtolerance="10"
     guidetolerance="10"
     inkscape:pageopacity="0"
     inkscape:pageshadow="2"
     inkscape:window-width="1175"
     inkscape:window-height="684"
     id="namedview4212"
     showgrid="false"
     inkscape:zoom="10.448"
     inkscape:cx="43.033837"
     inkscape:cy="87.465361"
     inkscape:window-x="0"
     inkscape:window-y="0"
     inkscape:window-maximized="0"
     inkscape:current-layer="svg4204" /><path
     d="M78.237,35.19c-1.12-3.182-4.601-4.857-7.784-3.752c-1.348-2.754-4.551-4.145-7.515-3.096  c-2.103,0.738-3.524,2.514-3.944,4.548c-0.527,0.04-1.058,0.124-1.58,0.308c-0.005,0.002-0.012,0.006-0.018,0.008  c-0.292-0.738-0.703-1.396-1.221-1.946c2.103-7.199,2.994-14.677,2.612-22.34l-4.684,0.233c0.317,6.358-0.301,12.581-1.82,18.603  c-1.271-2.916-4.574-4.416-7.626-3.338c-0.503,0.177-0.955,0.431-1.377,0.716c-1.277-2.908-4.574-4.406-7.626-3.332  c-1.704,0.604-2.958,1.894-3.603,3.445c-1.575-1.146-3.669-1.529-5.647-0.832c-3.188,1.125-4.869,4.627-3.742,7.815  c0.292,0.827,0.747,1.547,1.312,2.147c-2.149,1.55-3.142,4.365-2.216,6.988c0.443,1.26,1.266,2.27,2.285,2.979  c-0.763,1.455-0.954,3.203-0.367,4.873c0.411,1.174,1.153,2.136,2.076,2.833c-1.113,1.569-1.483,3.631-0.794,5.584  c0.431,1.221,1.213,2.213,2.188,2.918c-0.248,0.057-0.497,0.094-0.742,0.182c-3.188,1.123-4.869,4.623-3.742,7.815  c0.492,1.389,1.446,2.468,2.617,3.178c-1.726,1.609-2.438,4.146-1.599,6.515c0.516,1.472,1.552,2.599,2.813,3.298  c-1.039,1.552-1.381,3.55-0.716,5.448c1.127,3.188,4.629,4.867,7.822,3.742c2.558-0.905,4.11-3.331,4.061-5.898  c0.996,0.173,2.041,0.126,3.062-0.232c3.197-1.129,4.873-4.627,3.743-7.82c-0.011-0.021-0.021-0.04-0.031-0.063  c0.733,0.021,1.481-0.072,2.213-0.331c2.597-0.914,4.156-3.397,4.062-6.007c1.293,0.48,2.745,0.552,4.147,0.06  c3.196-1.13,4.867-4.627,3.746-7.816c-0.284-0.806-0.721-1.514-1.265-2.106c1.001-1.192,1.517-2.731,1.416-4.319  c0.706,0.01,1.424-0.08,2.128-0.328c2.294-0.807,3.78-2.84,4.031-5.103c0.783,0.045,1.58-0.059,2.361-0.336  c3-1.057,4.629-4.209,3.882-7.234c1.076,0.236,2.226,0.203,3.339-0.188C77.691,41.877,79.364,38.378,78.237,35.19z M56.481,44.463  c0.008-0.047,0.015-0.096,0.023-0.145c0.041,0.023,0.082,0.053,0.126,0.076C56.577,44.415,56.533,44.443,56.481,44.463z"
     id="path4206" /></svg>